<svg xmlns="http://www.w3.org/2000/svg" width="61.925" height="33.683" viewBox="0 0 61.925 33.683"><rect width="61.925" height="33.683" rx="4.679" transform="translate(0 0)" fill="#fff"/><g transform="translate(448.582 -1090.082)"><path d="M-414.164,1108.936a7.481,7.481,0,0,0,7.528-7.136,7.352,7.352,0,0,0-7.528-7.261h-3.387a7.1,7.1,0,0,0-7.261,7.261,7.214,7.214,0,0,0,7.261,7.136Z" transform="translate(-1.624)" fill="#004a98"/><path d="M-415.915,1105.731v-7.8a4.181,4.181,0,0,1,2.683,3.9,4.182,4.182,0,0,1-2.683,3.9m-5.671-3.9a4.185,4.185,0,0,1,2.681-3.9v7.8a4.182,4.182,0,0,1-2.681-3.9m4.176-6.591a6.591,6.591,0,0,0-6.589,6.591,6.59,6.59,0,0,0,6.589,6.589,6.59,6.59,0,0,0,6.59-6.589,6.591,6.591,0,0,0-6.59-6.591" transform="translate(-1.749 -0.108)" fill="#fff"/><path d="M-426,1115.319c0-.281-.085-.357-.442-.5v-.145a10.075,10.075,0,0,0,1-.366c.023,0,.045.016.045.076v.5a2.238,2.238,0,0,1,1.318-.571c.647,0,.875.472.875,1.066v1.962c0,.252.168.252.38.252h.137v.2c-.267,0-.533-.015-.806-.015s-.548.008-.823.015v-.2h.137c.213,0,.365,0,.365-.252v-1.97c0-.434-.265-.647-.7-.647a2.035,2.035,0,0,0-.884.366v2.252c0,.252.168.252.382.252h.137v.2c-.267,0-.533-.015-.807-.015s-.548.008-.822.015v-.2h.137c.213,0,.366,0,.366-.252Z" transform="translate(-1.364 -3.039)" fill="#1d1d1b"/><path d="M-420.068,1115.442c.19,0,.212-.1.212-.19a.645.645,0,0,0-.662-.7c-.465,0-.784.342-.875.891Zm-1.347.244a1.908,1.908,0,0,0,0,.441,1.271,1.271,0,0,0,1.119,1.317,1.457,1.457,0,0,0,1.027-.51l.107.107a1.784,1.784,0,0,1-1.407.861,1.529,1.529,0,0,1-1.455-1.659c0-1.492,1-1.934,1.537-1.934a1.209,1.209,0,0,1,1.287,1.195.941.941,0,0,1-.007.138l-.069.046Z" transform="translate(-2.053 -3.039)" fill="#1d1d1b"/><path d="M-418.481,1117.588h.206c.212,0,.365,0,.365-.252V1115.2c0-.236-.281-.282-.4-.343v-.114c.556-.236.861-.434.93-.434.045,0,.068.023.068.1v.685h.016c.19-.3.509-.785.974-.785a.415.415,0,0,1,.433.4.369.369,0,0,1-.357.388c-.237,0-.237-.183-.5-.183a.643.643,0,0,0-.556.632v1.787c0,.252.152.252.366.252h.426v.2c-.419-.008-.737-.015-1.065-.015-.311,0-.631.008-.905.015Z" transform="translate(-2.597 -3.039)" fill="#1d1d1b"/><path d="M-415.043,1116.727a1,1,0,0,0,.959.929.538.538,0,0,0,.616-.541c0-.9-1.659-.609-1.659-1.834a1.046,1.046,0,0,1,1.18-.975,2,2,0,0,1,.867.221l.053.776h-.175a.781.781,0,0,0-.829-.753.535.535,0,0,0-.594.5c0,.891,1.766.616,1.766,1.811,0,.5-.4,1.036-1.309,1.036a2,2,0,0,1-.928-.259l-.084-.875Z" transform="translate(-3.105 -3.039)" fill="#1d1d1b"/><path d="M-405.18,1113.5h-.19a1.448,1.448,0,0,0-1.629-1.247,2.169,2.169,0,0,0-2.147,2.412,2.48,2.48,0,0,0,2.269,2.642,1.548,1.548,0,0,0,1.53-1.318l.175.046-.175,1.112a4.273,4.273,0,0,1-1.682.4,2.709,2.709,0,0,1-2.907-2.862,2.8,2.8,0,0,1,2.884-2.68,5.486,5.486,0,0,1,1.8.4Z" transform="translate(-3.911 -2.685)" fill="#1d1d1b"/><path d="M-403.991,1117.163h.144c.213,0,.366,0,.366-.252v-4.238c0-.5-.114-.51-.4-.594v-.122a4.9,4.9,0,0,0,.784-.328.781.781,0,0,1,.167-.084c.047,0,.062.046.062.107v5.259c0,.252.168.252.381.252h.129v.2c-.258,0-.525-.015-.8-.015s-.548.008-.829.015Z" transform="translate(-4.825 -2.615)" fill="#1d1d1b"/><path d="M-398.808,1117.388c0,.137.083.145.212.145.091,0,.2-.008.3-.008v.16a7.764,7.764,0,0,0-1.1.236l-.038-.023v-.617a2.052,2.052,0,0,1-1.347.64.821.821,0,0,1-.837-.905v-1.949c0-.2-.03-.389-.456-.427v-.145c.274-.008.882-.053.981-.053s.085.053.085.221v1.963c0,.229,0,.884.662.884a1.7,1.7,0,0,0,.921-.464V1115c0-.152-.366-.235-.639-.312v-.138c.685-.046,1.111-.107,1.187-.107s.062.053.062.138Z" transform="translate(-5.121 -3.06)" fill="#1d1d1b"/><path d="M-396.611,1116.5a.819.819,0,0,0,.784.777c.815,0,1.157-.8,1.157-1.478a1.452,1.452,0,0,0-1.217-1.506,1.172,1.172,0,0,0-.724.358Zm0-2.07a1.921,1.921,0,0,1,1.134-.548,1.482,1.482,0,0,1,1.416,1.6,1.923,1.923,0,0,1-1.819,1.995,2.242,2.242,0,0,1-1.058-.266l-.229.174-.159-.083a8.973,8.973,0,0,0,.107-1.355v-3.272c0-.5-.115-.51-.4-.594v-.122a4.864,4.864,0,0,0,.784-.328.76.76,0,0,1,.168-.084c.046,0,.061.046.061.107Z" transform="translate(-5.804 -2.615)" fill="#1d1d1b"/><g transform="translate(-435.376 1109.349)"><g transform="translate(0.019 0)"><path d="M-433.9,1116.554c0,.586.419.655.791.655a2.121,2.121,0,0,0,2.185-2.375,2.287,2.287,0,0,0-2.382-2.45c-.313,0-.456.022-.594.031Zm-.746-3.57c0-.685-.357-.64-.7-.646v-.2c.3.014.6.014.9.014.32,0,.753-.014,1.317-.014a2.773,2.773,0,0,1,3.045,2.664c0,.753-.442,2.649-3.136,2.649-.388,0-.746-.015-1.1-.015-.342,0-.678.008-1.02.015v-.2c.456-.046.678-.061.7-.579Z" transform="translate(435.352 -1112.055)" fill="#1d1d1b"/><path d="M-428,1112.786a.391.391,0,0,1-.373-.38.389.389,0,0,1,.373-.366.373.373,0,0,1,.373.366.38.38,0,0,1-.373.38m-.814,4.453h.145c.212,0,.365,0,.365-.252v-2.062c0-.335-.114-.382-.4-.533v-.122c.358-.107.784-.25.814-.273a.272.272,0,0,1,.138-.039c.037,0,.053.046.053.107v2.921c0,.252.167.252.381.252h.129v.2c-.259,0-.526-.015-.8-.015s-.548.008-.829.015Z" transform="translate(434.349 -1112.04)" fill="#1d1d1b"/><path d="M-435.354,1123.144h.058c.15,0,.306-.02.306-.235v-2.17c0-.217-.157-.237-.306-.237h-.058v-.124c.162,0,.41.017.614.017s.454-.017.649-.017v.124h-.058c-.149,0-.306.02-.306.237v2.17c0,.215.157.235.306.235h.058v.125c-.2,0-.448-.017-.654-.017s-.447.017-.608.017Z" transform="translate(435.354 -1113.322)" fill="#1d1d1b"/><path d="M-431,1122.441v0l0,0Zm.009.008.014-.012Zm.083.86h.137a2.764,2.764,0,0,1-.022-.4v-1.885c0-.5.208-.544.387-.544h.044v-.088c-.163,0-.328.016-.492.016-.19,0-.374-.015-.562-.016v.088h.073a.362.362,0,0,1,.379.408l-.006,1.565-.008.008-.014.013-1.842-2.082c-.123,0-.243.016-.369.016-.151,0-.307-.015-.458-.016v.088h.036a.389.389,0,0,1,.394.39v1.744c0,.332-.092.543-.39.545l-.041,0v.09c.18,0,.365-.017.546-.017s.345.015.516.017v-.088h-.052c-.326,0-.407-.143-.407-.5V1120.9Zm.157.036-.171-.006-2.1-2.342v1.66c0,.36.059.462.371.466h.088v.16h-.018c-.179,0-.358-.016-.534-.016s-.376.016-.564.016h-.019v-.16h.077c.273,0,.351-.177.355-.508v-1.744a.354.354,0,0,0-.359-.354h-.073v-.16h.019c.158,0,.32.016.476.016.124,0,.243-.016.383-.009l1.82,2.049v-1.523c0-.33-.222-.37-.343-.372h-.109v-.16h.019c.2,0,.386.016.58.016.168,0,.339-.016.509-.016h.018v.16h-.08c-.171.005-.346.02-.351.509v1.885a2.694,2.694,0,0,0,.025.415l0,.021Z" transform="translate(435.099 -1113.319)" fill="#1d1d1b"/><path d="M-429.1,1120.562c-.311,0-.323.074-.385.376h-.124c.017-.116.037-.232.05-.352a2.417,2.417,0,0,0,.025-.351h.1c.033.124.136.119.249.119h2.136c.113,0,.216,0,.224-.129l.1.017c-.016.112-.033.223-.045.335s-.008.224-.008.336l-.124.046c-.008-.153-.029-.4-.306-.4h-.679v2.2c0,.319.145.355.343.355h.08v.125c-.162,0-.452-.017-.675-.017-.249,0-.539.017-.7.017v-.125h.08c.229,0,.344-.02.344-.347v-2.212Z" transform="translate(434.47 -1113.298)" fill="#1d1d1b"/></g><g transform="translate(0 6.907)"><path d="M-434.113,1123.249v-.089h-.041c-.148,0-.324-.025-.325-.255v-2.169c0-.229.177-.255.325-.255h.04v-.088c-.191,0-.431.016-.631.016s-.435-.015-.6-.016v.088h.04c.148,0,.324.025.324.255v2.169c0,.229-.176.255-.324.255h-.04v.089c.161,0,.394-.017.591-.017s.442.015.636.017m.019.035c-.2,0-.449-.016-.655-.016s-.446.016-.608.016h-.019v-.16h.076c.151,0,.287-.015.289-.218v-2.169c0-.2-.138-.217-.289-.219h-.076v-.16h.019c.163,0,.41.016.614.016s.454-.016.65-.016h.018v.16h-.076c-.151,0-.288.016-.289.219v2.169c0,.2.138.215.289.218h.076v.16Z" transform="translate(435.376 -1120.226)" fill="#1d1d1b"/><path d="M-430.987,1122.453l.008-.009v-1.552a.342.342,0,0,0-.36-.39h-.091v-.124c.195,0,.385.017.58.017.169,0,.34-.017.51-.017v.124h-.062c-.174,0-.369.033-.369.526v1.885a2.763,2.763,0,0,0,.025.418h-.157l-2.133-2.378v1.707c0,.36.069.484.389.484h.07v.125c-.179,0-.356-.017-.535-.017s-.376.017-.563.017v-.125h.058c.285,0,.372-.194.372-.526v-1.744a.372.372,0,0,0-.377-.372h-.054v-.124c.157,0,.319.017.476.017.124,0,.245-.017.369-.017Z" transform="translate(435.115 -1120.229)" fill="#1d1d1b"/><path d="M-427.467,1123.26c-.162,0-.453-.016-.675-.016-.248,0-.537.016-.7.016h-.017v-.16h.1c.228-.005.32-.009.325-.329v-2.194h-.661v-.036h.7v2.231c0,.333-.135.365-.361.366h-.061v.087c.163,0,.442-.016.682-.016.216,0,.493.015.657.016v-.087h-.061c-.2,0-.361-.05-.361-.375v-2.222h.7c.278,0,.314.237.323.391l.09-.033c0-.108,0-.216.008-.325s.028-.212.043-.318l-.063-.01c-.019.12-.135.126-.24.125h-2.158c-.1,0-.2-.005-.24-.12h-.069a2.329,2.329,0,0,1-.025.336c-.012.113-.03.223-.046.333h.088c.055-.289.091-.383.4-.378v.036c-.306.006-.3.058-.367.363l0,.014h-.159l0-.021c.017-.116.038-.232.051-.352a2.382,2.382,0,0,0,.025-.349v-.019h.131l0,.014c.028.1.1.1.21.107h2.158c.115,0,.2,0,.206-.112l0-.019.019,0,.117.019,0,.019c-.016.111-.033.222-.045.333s-.008.222-.008.334v.013l-.012,0-.146.054v-.025c-.011-.155-.028-.381-.289-.381h-.661v2.186c0,.312.128.333.325.338h.1v.16Z" transform="translate(434.492 -1120.202)" fill="#1d1d1b"/></g></g><path d="M-425.918,1123.144h.058c.149,0,.306-.02.306-.235v-2.17c0-.217-.157-.237-.306-.237h-.058v-.124c.252,0,.684.017,1.031.017s.779-.017,1.06-.017c-.007.178,0,.452.009.634l-.125.033c-.019-.269-.069-.484-.5-.484h-.575v1.085h.493c.248,0,.3-.141.328-.365h.124c-.008.162-.013.323-.013.485s0,.315.013.472l-.124.024c-.025-.248-.037-.41-.323-.41h-.5v.965c0,.269.24.269.5.269.5,0,.717-.033.841-.505l.116.029c-.054.22-.1.439-.141.659-.266,0-.741-.017-1.114-.017s-.867.017-1.1.017Z" transform="translate(-1.454 -3.972)" fill="#1d1d1b"/><path d="M-423.72,1123.248c.036-.209.083-.419.134-.627l-.081-.02c-.124.463-.365.5-.854.5-.261,0-.521,0-.523-.287v-.983h.515c.289,0,.318.171.339.407l.09-.02c-.008-.152-.012-.3-.012-.457s0-.311.012-.467h-.09c-.023.217-.091.367-.343.365h-.511v-1.121h.594c.431,0,.5.22.52.48l.09-.024c-.008-.118-.012-.267-.012-.405,0-.071,0-.138,0-.2-.281,0-.7.016-1.042.016s-.758-.015-1.012-.016v.088h.04c.148,0,.324.025.325.255v2.169c0,.229-.177.254-.325.255h-.04v.087c.241,0,.719-.016,1.083-.016s.832.015,1.1.016m.015.036c-.266,0-.742-.017-1.115-.017s-.865.017-1.1.017h-.017v-.16h.075c.15,0,.286-.015.289-.218v-2.169c0-.2-.139-.216-.289-.219h-.075v-.16h.017c.253,0,.684.016,1.031.016s.779-.016,1.06-.016h.019v.019c0,.063,0,.136,0,.214,0,.143,0,.3.013.417v.015l-.014,0-.145.038,0-.021c-.024-.269-.06-.464-.487-.468h-.558v1.048h.476c.239,0,.281-.124.309-.348l0-.016h.159v.019c-.008.162-.013.322-.013.484s.005.314.013.471v.015l-.015,0-.144.029,0-.019c-.028-.253-.03-.392-.3-.4h-.479v.948c0,.251.217.25.487.251.5,0,.7-.027.823-.493l.005-.016.017,0,.133.035,0,.017c-.053.219-.1.438-.14.657l0,.014Z" transform="translate(-1.451 -3.969)" fill="#1d1d1b"/><path d="M-422.009,1121.778h.2c.415,0,.638-.157.638-.646a.565.565,0,0,0-.605-.6,2.231,2.231,0,0,0-.235.016Zm-.531-.961c0-.3-.165-.315-.294-.315h-.074v-.124c.132,0,.388.017.641.017s.448-.017.667-.017c.521,0,.986.14.986.729a.784.784,0,0,1-.575.73l.707,1.059a.46.46,0,0,0,.4.249v.125c-.136,0-.269-.017-.405-.017s-.262.017-.389.017a11.477,11.477,0,0,1-.862-1.343h-.273v.887c0,.319.149.331.339.331h.075v.125c-.237,0-.476-.017-.713-.017-.2,0-.393.017-.6.017v-.125h.074c.153,0,.294-.069.294-.223Z" transform="translate(-1.917 -3.972)" fill="#1d1d1b"/><path d="M-421.81,1121.757c.41,0,.617-.146.62-.627a.549.549,0,0,0-.587-.588,1.638,1.638,0,0,0-.218.015v1.2Zm-.2.036h-.019v-1.268l.016,0a2.04,2.04,0,0,1,.238-.016.585.585,0,0,1,.623.623c0,.494-.238.663-.656.663Zm0,.114h.283l.005.008a12.837,12.837,0,0,0,.847,1.334c.126,0,.259-.017.388-.017s.26.014.388.016v-.091a.474.474,0,0,1-.4-.255l-.721-1.078.02-.008a.764.764,0,0,0,.564-.713c0-.575-.447-.708-.967-.71-.218,0-.417.016-.667.016s-.488-.015-.625-.016v.088h.058c.129,0,.311.021.311.333v2.1c0,.167-.156.242-.311.243h-.058v.087c.2,0,.388-.016.583-.016.231,0,.465.015.694.016v-.087h-.056c-.19,0-.358-.024-.358-.351v-.9Zm1.93,1.377c-.139,0-.27-.016-.406-.016s-.259.016-.4.009a11.562,11.562,0,0,1-.857-1.335h-.245v.867c0,.312.13.31.322.314h.092v.16h-.019c-.237,0-.477-.016-.712-.016-.2,0-.393.016-.6.016h-.018v-.16h.093c.149,0,.275-.066.275-.206v-2.1c0-.294-.146-.293-.275-.3h-.093v-.16h.018c.135,0,.39.016.642.016s.446-.016.667-.016c.522,0,1,.145,1,.746a.792.792,0,0,1-.566.738l.7,1.042a.443.443,0,0,0,.389.24l.015,0v.157Z" transform="translate(-1.913 -3.969)" fill="#1d1d1b"/><path d="M-416.731,1122.453l.008-.009v-1.552a.342.342,0,0,0-.361-.39h-.091v-.124c.195,0,.385.017.58.017.17,0,.339-.017.51-.017v.124h-.063c-.173,0-.369.033-.369.526v1.885a2.755,2.755,0,0,0,.025.418h-.157l-2.133-2.378v1.707c0,.36.069.484.388.484h.07v.125c-.178,0-.355-.017-.533-.017s-.377.017-.564.017v-.125h.057c.287,0,.374-.194.374-.526v-1.744a.372.372,0,0,0-.377-.372h-.053v-.124c.157,0,.319.017.476.017.124,0,.245-.017.369-.017Z" transform="translate(-2.453 -3.972)" fill="#1d1d1b"/><path d="M-416.745,1122.441h0l0,0Zm.01.008.013-.012Zm.083.86h.135a2.889,2.889,0,0,1-.021-.4v-1.885c0-.5.209-.543.387-.544h.043v-.088c-.162,0-.327.016-.491.016-.19,0-.375-.015-.562-.016v.088h.073a.362.362,0,0,1,.379.407l-.006,1.566-.008.008-.013.014-1.842-2.083c-.124,0-.244.016-.369.016-.153,0-.308-.015-.459-.016v.088h.036a.389.389,0,0,1,.394.39v1.743c0,.333-.093.544-.391.546h-.04v.088c.179,0,.364-.016.546-.016s.345.015.516.016v-.087h-.052c-.327,0-.408-.143-.409-.5V1120.9Zm.157.036-.17-.006-2.1-2.342v1.66c.005.36.059.462.372.466h.087v.16h-.018c-.179,0-.357-.017-.534-.017s-.377.017-.563.017h-.019v-.16h.076c.274,0,.352-.177.355-.509v-1.743a.354.354,0,0,0-.359-.354h-.073v-.16h.019c.157,0,.32.016.476.016.122,0,.242-.016.381-.011l1.821,2.051v-1.524c0-.329-.222-.37-.343-.371h-.109v-.16h.019c.2,0,.386.016.58.016.168,0,.339-.016.509-.016h.018v.16h-.08c-.171,0-.347.02-.351.509v1.885a2.618,2.618,0,0,0,.025.416l0,.02Z" transform="translate(-2.45 -3.969)" fill="#1d1d1b"/><path d="M-414.212,1120.823h-.008l-.385,1.173h.773Zm-.6,1.836a1.639,1.639,0,0,0-.092.322c0,.125.174.145.311.145h.047v.125c-.167-.009-.336-.017-.5-.017-.149,0-.3.008-.447.017v-.125h.025a.374.374,0,0,0,.36-.269l.663-1.9a3.474,3.474,0,0,0,.153-.514,2.162,2.162,0,0,0,.377-.178.1.1,0,0,1,.033-.008.029.029,0,0,1,.03.013c.012.033.025.07.037.1l.762,2.166c.049.145.1.3.152.422a.263.263,0,0,0,.274.165h.025v.125c-.186-.009-.373-.017-.571-.017s-.41.008-.622.017v-.125h.046c.095,0,.257-.016.257-.119a1.309,1.309,0,0,0-.084-.3l-.162-.48h-.939Z" transform="translate(-3.056 -3.954)" fill="#1d1d1b"/><path d="M-414.233,1120.825l.009,0Zm-.352,1.148h.725l-.361-1.109Zm-.049.036.4-1.208h.022v.018l0,0,0,0v-.018h.013l.394,1.208Zm.846,1.218c.206-.008.406-.015.6-.015s.372.007.553.015v-.087h-.006a.282.282,0,0,1-.291-.177c-.053-.125-.1-.278-.153-.424l-.762-2.166c-.013-.033-.025-.07-.036-.1,0,0,0,0-.007,0h-.008a.1.1,0,0,0-.024.005,1.537,1.537,0,0,1-.369.166,3.4,3.4,0,0,1-.154.517l-.663,1.9a.393.393,0,0,1-.377.282h-.007v.087c.142-.008.285-.015.429-.015.16,0,.324.007.482.015v-.087h-.027c-.135,0-.323-.017-.328-.162a1.591,1.591,0,0,1,.091-.328l.019.005-.019-.006.137-.443h.966l.166.492a1.25,1.25,0,0,1,.085.3c-.006.127-.181.135-.275.138h-.028Zm1.174.036c-.186-.008-.372-.017-.57-.017s-.41.009-.621.017h-.019v-.162h.063c.1,0,.239-.021.239-.1a1.332,1.332,0,0,0-.082-.293l-.157-.469h-.914l-.129.419a1.809,1.809,0,0,0-.091.318c0,.1.157.125.294.125h.063v.162h-.019c-.166-.008-.334-.017-.5-.017-.148,0-.3.009-.446.017h-.019v-.162h.043a.355.355,0,0,0,.343-.256l.663-1.9a4.735,4.735,0,0,0,.165-.525,2.144,2.144,0,0,0,.376-.178.1.1,0,0,1,.04-.01.051.051,0,0,1,.046.024c.012.034.025.071.038.1l.763,2.167c.049.145.1.3.152.421a.241.241,0,0,0,.257.154h.042v.162Z" transform="translate(-3.052 -3.95)" fill="#1d1d1b"/><path d="M-411.962,1120.562c-.311,0-.323.074-.385.376h-.124c.016-.116.037-.232.05-.352a2.543,2.543,0,0,0,.025-.351h.1c.033.124.137.119.249.119h2.138c.111,0,.214,0,.223-.129l.1.017c-.016.112-.033.223-.045.335s-.009.224-.009.336l-.124.046c-.008-.153-.028-.4-.306-.4h-.68v2.2c0,.319.145.355.344.355h.079v.125c-.162,0-.451-.017-.675-.017-.248,0-.538.017-.7.017v-.125h.079c.228,0,.344-.02.344-.347v-2.212Z" transform="translate(-3.521 -3.949)" fill="#1d1d1b"/><path d="M-410.334,1123.26c-.162,0-.453-.016-.675-.016-.247,0-.537.016-.7.016h-.018v-.16h.1c.228-.005.32-.009.326-.329v-2.194h-.66v-.036h.7v2.231c0,.333-.135.365-.361.365h-.061v.089c.164,0,.442-.017.682-.017.217,0,.493.015.658.017v-.089h-.061c-.2,0-.361-.049-.361-.374v-2.222h.7c.278,0,.314.237.322.391l.09-.033c0-.108,0-.216.008-.325s.027-.212.042-.318l-.063-.01c-.019.12-.136.127-.239.125h-2.159c-.1,0-.2-.005-.241-.121h-.068a2.332,2.332,0,0,1-.025.337c-.011.113-.03.223-.047.333h.089c.054-.289.091-.383.4-.378v.036c-.307.005-.3.058-.368.363l0,.014h-.16l0-.02c.017-.117.037-.233.05-.353a2.382,2.382,0,0,0,.025-.349v-.019h.131l0,.014c.029.1.1.1.211.107h2.159c.114,0,.2,0,.2-.112v-.019l.019,0,.118.019,0,.019c-.016.111-.032.222-.045.333s-.008.223-.008.334v.013l-.012,0-.146.054v-.025c-.011-.155-.027-.381-.289-.381h-.662v2.186c0,.312.129.333.325.338h.1v.16Z" transform="translate(-3.517 -3.945)" fill="#1d1d1b"/><path d="M-408.885,1123.144h.058c.149,0,.306-.02.306-.235v-2.17c0-.217-.157-.237-.306-.237h-.058v-.124c.162,0,.41.017.613.017s.456-.017.651-.017v.124h-.058c-.15,0-.307.02-.307.237v2.17c0,.215.157.235.307.235h.058v.125c-.2,0-.448-.017-.654-.017s-.448.017-.609.017Z" transform="translate(-4.073 -3.972)" fill="#1d1d1b"/><path d="M-407.643,1123.248v-.088h-.039c-.149,0-.325-.025-.325-.255v-2.169c0-.229.176-.255.325-.255h.039v-.088c-.191,0-.431.016-.632.016s-.434-.015-.594-.016v.088h.04c.147,0,.323.025.324.255v2.169c0,.229-.177.255-.324.255h-.04v.088c.16,0,.394-.016.591-.016s.44.015.636.016m.019.036c-.2,0-.448-.017-.654-.017s-.447.017-.609.017h-.018v-.16h.076c.149,0,.287-.015.288-.218v-2.169c0-.2-.139-.217-.288-.219h-.076v-.16h.018c.163,0,.411.016.613.016s.455-.016.651-.016h.018v.16h-.075c-.152,0-.288.017-.289.219v2.169c0,.2.138.216.289.218h.075v.16Z" transform="translate(-4.069 -3.969)" fill="#1d1d1b"/><path d="M-405.655,1123.137c.8,0,.944-.708.944-1.312s-.327-1.339-1.015-1.339c-.724,0-.939.647-.939,1.2,0,.741.339,1.45,1.01,1.45m-.063-2.832a1.453,1.453,0,0,1,1.587,1.429,1.52,1.52,0,0,1-1.566,1.586,1.463,1.463,0,0,1-1.549-1.487,1.506,1.506,0,0,1,1.528-1.528" transform="translate(-4.325 -3.961)" fill="#1d1d1b"/><path d="M-406.687,1121.684c0-.557.219-1.219.959-1.219.7,0,1.031.747,1.032,1.357s-.144,1.329-.962,1.329v-.036c.788,0,.924-.691.926-1.294s-.323-1.319-1-1.32c-.711,0-.921.63-.922,1.182,0,.738.337,1.43.993,1.432v.036c-.688,0-1.027-.722-1.029-1.468m-.58.146a1.526,1.526,0,0,1,1.546-1.546v.036a1.49,1.49,0,0,0-1.511,1.51,1.447,1.447,0,0,0,1.533,1.468,1.5,1.5,0,0,0,1.548-1.568,1.435,1.435,0,0,0-1.569-1.411v-.036a1.471,1.471,0,0,1,1.6,1.446,1.539,1.539,0,0,1-1.583,1.6,1.484,1.484,0,0,1-1.567-1.5" transform="translate(-4.321 -3.958)" fill="#1d1d1b"/><path d="M-400.755,1122.453l.008-.009v-1.552a.342.342,0,0,0-.361-.39h-.09v-.124c.194,0,.384.017.579.017.17,0,.34-.017.51-.017v.124h-.063c-.173,0-.369.033-.369.526v1.885a2.649,2.649,0,0,0,.025.418h-.157l-2.133-2.378v1.707c0,.36.07.484.389.484h.07v.125c-.178,0-.355-.017-.534-.017s-.377.017-.564.017v-.125h.058c.286,0,.372-.194.372-.526v-1.744a.371.371,0,0,0-.377-.372h-.054v-.124c.157,0,.319.017.476.017.124,0,.244-.017.369-.017Z" transform="translate(-4.909 -3.972)" fill="#1d1d1b"/><path d="M-400.769,1122.441h0l0,0Zm.009.008.014-.012Zm.084.86h.135a2.894,2.894,0,0,1-.021-.4v-1.885c0-.5.209-.543.386-.544h.046v-.088c-.164,0-.328.016-.493.016-.189,0-.373-.015-.561-.016v.088h.073a.363.363,0,0,1,.378.408l0,1.565-.008.008-.014.014-1.843-2.083c-.122,0-.243.016-.368.016-.152,0-.308-.015-.459-.016v.088h.036a.389.389,0,0,1,.394.39v1.744c0,.332-.092.543-.39.545h-.041v.088c.179,0,.364-.016.546-.016s.344.015.516.016v-.087h-.053c-.325,0-.406-.143-.406-.5V1120.9Zm.157.036-.172-.006-2.1-2.342v1.66c.005.36.06.462.371.465h.09v.161h-.019c-.179,0-.357-.016-.534-.016s-.376.016-.564.016h-.017v-.161h.075c.273,0,.352-.176.355-.507v-1.744a.353.353,0,0,0-.359-.354h-.071v-.16h.017c.158,0,.32.016.476.016.123,0,.242-.016.383-.009l1.819,2.049v-1.523c0-.33-.222-.37-.343-.372h-.109v-.16h.019c.2,0,.386.016.579.016.17,0,.339-.016.511-.016h.017v.16h-.08c-.17.005-.346.02-.349.509v1.885a2.715,2.715,0,0,0,.023.416l0,.02Z" transform="translate(-4.906 -3.969)" fill="#1d1d1b"/><path d="M-398.236,1120.823h-.008l-.386,1.173h.776Zm-.605,1.836a1.75,1.75,0,0,0-.091.322c0,.125.175.145.311.145h.047v.125c-.166-.009-.336-.017-.5-.017-.149,0-.3.008-.447.017v-.125h.024a.374.374,0,0,0,.361-.269l.663-1.9a3.377,3.377,0,0,0,.153-.514,2.2,2.2,0,0,0,.377-.178.092.092,0,0,1,.033-.008c.012,0,.02,0,.028.013.013.033.025.07.038.1l.762,2.166c.05.145.1.3.154.422a.261.261,0,0,0,.272.165h.025v.125c-.186-.009-.373-.017-.572-.017s-.41.008-.621.017v-.125h.046c.095,0,.257-.016.257-.119a1.307,1.307,0,0,0-.084-.3l-.161-.48h-.94Z" transform="translate(-5.512 -3.954)" fill="#1d1d1b"/><path d="M-398.256,1120.826l.008,0Zm-.352,1.148h.724l-.361-1.109Zm-.05.035.4-1.208h.021v.018l0,0,0,0v-.018h.013l.392,1.208Zm.846,1.219c.2-.008.406-.015.6-.015s.373.007.553.015v-.087h-.007a.28.28,0,0,1-.289-.177c-.055-.125-.1-.278-.154-.423l-.762-2.166c-.013-.033-.025-.07-.036-.1l-.006-.005h-.008a.065.065,0,0,0-.023.006,1.573,1.573,0,0,1-.369.165,3.407,3.407,0,0,1-.155.517l-.663,1.9a.393.393,0,0,1-.377.282h-.006v.087c.143-.008.285-.015.429-.015.161,0,.324.007.483.015v-.087h-.028c-.135,0-.323-.016-.328-.163a1.672,1.672,0,0,1,.092-.328l.017.005-.017-.006.136-.443h.966l.166.492a1.285,1.285,0,0,1,.084.3c-.007.127-.18.135-.274.138h-.028Zm1.174.036c-.186-.007-.372-.016-.57-.016s-.41.009-.62.016h-.019v-.161h.063c.1,0,.239-.022.239-.1a1.331,1.331,0,0,0-.082-.293l-.157-.469h-.915l-.128.419a1.714,1.714,0,0,0-.09.317c0,.1.155.127.292.127h.063v.161h-.019c-.165-.007-.335-.016-.5-.016-.148,0-.3.009-.447.016h-.018v-.161h.041a.359.359,0,0,0,.344-.256l.663-1.9a5.143,5.143,0,0,0,.164-.525,2.238,2.238,0,0,0,.377-.178.1.1,0,0,1,.039-.009.048.048,0,0,1,.046.025c.013.032.025.07.038.1l.762,2.167c.05.145.1.3.153.421a.243.243,0,0,0,.256.154h.042v.161Z" transform="translate(-5.508 -3.95)" fill="#1d1d1b"/><path d="M-395.038,1122.863c0,.166.115.215.248.232a2.989,2.989,0,0,0,.548-.008.588.588,0,0,0,.4-.224.95.95,0,0,0,.129-.3h.12c-.046.236-.1.469-.154.7-.364,0-.729-.017-1.093-.017s-.729.017-1.093.017v-.125h.057c.15,0,.311-.02.311-.278v-2.127c0-.217-.162-.237-.311-.237h-.057v-.124c.219,0,.434.017.654.017s.418-.017.63-.017v.124h-.1c-.157,0-.281.005-.281.223Z" transform="translate(-6.063 -3.972)" fill="#1d1d1b"/><path d="M-393.769,1123.248c.047-.225.1-.444.146-.668h-.086a.932.932,0,0,1-.127.292.618.618,0,0,1-.41.23c-.109.011-.216.017-.318.017-.08,0-.157,0-.232-.008-.135-.015-.266-.073-.266-.25v-2.138c0-.23.146-.241.3-.241h.085v-.088c-.2,0-.405.016-.612.016s-.424-.015-.636-.016v.088h.04c.148,0,.329.025.329.254v2.129c0,.267-.18.3-.329.3h-.04v.088c.358,0,.717-.016,1.076-.016s.719.015,1.078.016m.014.036c-.365,0-.729-.016-1.093-.016s-.729.016-1.094.016h-.018v-.16h.075c.151,0,.292-.014.294-.259v-2.129c0-.2-.143-.216-.294-.218h-.075v-.16h.018c.22,0,.436.016.654.016s.418-.016.63-.016h.017v.16h-.121c-.161,0-.261,0-.264.206v2.138c0,.154.1.2.232.214.073.005.15.008.229.008a2.82,2.82,0,0,0,.314-.016.575.575,0,0,0,.386-.217.918.918,0,0,0,.124-.292l0-.014h.156l0,.022c-.047.237-.1.468-.154.7l0,.014Z" transform="translate(-6.06 -3.969)" fill="#1d1d1b"/><path d="M-393.382,1120.677h.052c.056,0,.083-.042.083-.111a.082.082,0,0,0-.085-.094h-.049Zm-.147.23v-.021c.054-.008.063-.006.063-.04v-.323c0-.046,0-.061-.062-.058v-.022h.223c.077,0,.147.036.147.115a.137.137,0,0,1-.1.132l.071.1a.461.461,0,0,0,.1.1v.014h-.085c-.041,0-.076-.086-.157-.2h-.048v.145c0,.029.01.027.064.035v.021Zm.217.124a.35.35,0,0,0,.344-.354.351.351,0,0,0-.344-.355.353.353,0,0,0-.346.355.351.351,0,0,0,.346.354m0-.791a.429.429,0,0,1,.436.438.427.427,0,0,1-.436.435.428.428,0,0,1-.437-.435.429.429,0,0,1,.437-.437" transform="translate(-6.4 -3.951)" fill="#1d1d1b"/></g></svg>