<?xml version="1.0" encoding="utf-8"?>
<!-- Generator: Adobe Illustrator 24.0.0, SVG Export Plug-In . SVG Version: 6.00 Build 0)  -->
<svg version="1.1" id="Capa_1" xmlns="http://www.w3.org/2000/svg" xmlns:xlink="http://www.w3.org/1999/xlink" x="0px" y="0px"
	 viewBox="0 0 61.9 33.7" enable-background="new 0 0 61.9 33.7" xml:space="preserve">
<path fill="#FFFFFF" d="M4.7,0h52.6C59.9,0,62,2.1,62,4.7V29c0,2.6-2.1,4.7-4.7,4.7H4.7C2.1,33.7,0,31.6,0,29V4.7C0,2.1,2.1,0,4.7,0
	z"/>
<g>
	<g>
		<path fill="#6F0375" d="M40.664,22.221c-1.412,0.107-2.825,0.221-4.235,0.356c-0.865,0.083-1.727,0.208-2.632,0.319
			c0.095-0.634,0.183-1.221,0.278-1.853c0.121,0.087,0.183,0.131,0.245,0.175c0.87,0.616,1.703,0.535,2.411-0.254
			c0.546-0.609,0.839-1.355,1.068-2.124c0.363-1.221,0.61-2.456,0.271-3.729c-0.295-1.107-1.371-1.389-2.203-0.583
			c-0.166,0.161-0.337,0.318-0.482,0.455c-0.037-0.131-0.034-0.316-0.126-0.406c-0.403-0.398-1.063-0.199-1.17,0.343
			c-0.308,1.553-0.6,3.11-0.922,4.661c-0.04,0.192-0.197,0.378-0.344,0.522c-0.097,0.094-0.273,0.107-0.414,0.156
			c-0.05-0.152-0.158-0.311-0.141-0.456c0.063-0.549,0.152-1.097,0.259-1.639c0.187-0.947,0.401-1.889,0.59-2.835
			c0.069-0.343-0.072-0.561-0.434-0.649c-0.512-0.125-0.604-0.088-0.935,0.505c-0.894-0.526-1.54-0.437-2.273,0.322
			c-0.623,0.644-1.004,1.431-1.3,2.263c-0.408,1.146-0.625,2.314-0.341,3.526c0.126,0.537,0.412,0.933,0.972,1.097
			c0.599,0.175,1.097,0.008,1.509-0.43c0.183-0.194,0.323-0.427,0.498-0.663c0.118,0.428,0.372,0.766,0.815,0.739
			c0.386-0.024,0.763-0.209,1.151-0.324c-0.064,0.323-0.159,0.659-0.192,1.002c-0.029,0.308-0.177,0.397-0.46,0.44
			c-1.579,0.238-3.155,0.494-4.732,0.748c-0.5,0.081-0.999,0.172-1.556,0.269c0.229-0.815,0.44-1.557,0.646-2.301
			c0.562-2.023,1.129-4.044,1.677-6.07c0.143-0.528-0.078-0.736-0.61-0.609c-0.626,0.15-1.015,0.547-1.232,1.161
			c-0.433,1.226-0.878,2.449-1.371,3.651c-0.139,0.341-0.432,0.638-0.711,0.893c-0.13,0.119-0.449,0.182-0.582,0.103
			c-0.136-0.081-0.216-0.374-0.2-0.564c0.031-0.368,0.133-0.733,0.229-1.093c0.201-0.745,0.445-1.48,0.617-2.232
			c0.113-0.491-0.291-0.881-0.858-0.908c-0.37-0.018-0.474,0.161-0.502,0.737c-0.014,0.278-0.076,0.559-0.158,0.825
			c-0.124,0.406-0.314,0.793-0.422,1.202c-0.204,0.77-0.412,1.544-0.539,2.329c-0.093,0.576,0.032,1.154,0.58,1.498
			c0.551,0.346,1.093,0.202,1.583-0.161c0.275-0.203,0.524-0.441,0.83-0.702c-0.288,0.88-0.55,1.712-0.839,2.535
			c-0.042,0.119-0.201,0.216-0.326,0.285c-0.698,0.383-1.44,0.699-2.097,1.142c-1.484,1.001-2.523,2.346-2.892,4.139
			c-0.163,0.79-0.018,1.504,0.639,2.023c0.679,0.536,1.421,0.449,2.15,0.095c0.705-0.342,1.205-0.917,1.672-1.524
			c0.951-1.235,1.502-2.665,1.977-4.127c0.092-0.282,0.229-0.42,0.515-0.478c1.629-0.325,3.254-0.669,4.883-0.995
			c0.537-0.108,1.081-0.182,1.651-0.276c0.009,0.193-0.02,0.336,0.029,0.442c0.092,0.197,0.195,0.471,0.358,0.528
			c0.162,0.057,0.454-0.062,0.597-0.199c0.165-0.158,0.274-0.411,0.326-0.64c0.057-0.249,0.177-0.338,0.408-0.367
			c1.482-0.189,2.964-0.382,4.446-0.579c0.88-0.117,1.763-0.22,2.637-0.378c0.449-0.081,0.594-0.476,0.416-0.897
			C41.235,22.343,40.983,22.197,40.664,22.221z M34.513,19.789c0.272-1.016,0.524-2.039,0.849-3.038
			c0.113-0.347,0.384-0.666,0.648-0.935c0.312-0.317,0.625-0.206,0.735,0.223c0.057,0.222,0.068,0.455,0.086,0.583
			c-0.049,1.045-0.323,1.927-0.732,2.763c-0.24,0.491-0.602,0.879-1.23,0.825C34.617,20.189,34.435,20.08,34.513,19.789z
			 M31.514,16.672c-0.336,1.13-0.704,2.251-1.072,3.372c-0.046,0.141-0.15,0.272-0.253,0.383c-0.268,0.289-0.664,0.255-0.827-0.102
			c-0.131-0.285-0.178-0.607-0.237-0.825c0.149-1.129,0.375-2.115,1.168-2.852c0.2-0.186,0.462-0.327,0.72-0.425
			C31.332,16.102,31.612,16.344,31.514,16.672z M21.456,30.173c-0.181,0.212-0.402,0.407-0.641,0.548
			c-0.145,0.086-0.426,0.137-0.526,0.056c-0.126-0.102-0.212-0.375-0.171-0.538c0.097-0.381,0.24-0.764,0.435-1.105
			c0.636-1.115,1.56-1.924,2.827-2.502C22.876,27.978,22.32,29.161,21.456,30.173z M39.843,18.413
			c0.047-0.236,0.165-0.342,0.426-0.396c1.48-0.305,2.628-1.508,2.887-2.983c0.163-0.93-0.377-1.601-1.32-1.639
			c-0.515-0.021-0.97,0.139-1.345,0.486c-1.489,1.375-2.075,3.145-2.229,5.093c0.035,0.325,0.051,0.635,0.103,0.939
			c0.181,1.057,1.003,1.592,2.038,1.329c0.881-0.224,1.566-0.754,2.181-1.4c0.411-0.432,0.459-0.632,0.22-1.167
			c-0.199-0.447-0.383-0.454-0.735-0.104c-0.335,0.333-0.7,0.644-1.088,0.912c-0.286,0.197-0.65,0.332-0.974,0.082
			c-0.332-0.256-0.252-0.645-0.211-1.003C39.804,18.511,39.833,18.464,39.843,18.413z M41.102,15.055
			c0.133-0.208,0.395-0.406,0.611-0.225c0.128,0.107,0.158,0.46,0.088,0.649c-0.256,0.688-0.819,1.043-1.49,1.243
			c-0.046-0.034-0.093-0.068-0.139-0.101C40.479,16.098,40.774,15.566,41.102,15.055z"/>
	</g>
	<path fill="#00D0B4" d="M32.296,1.136c-3.014,0-5.457,2.443-5.457,5.457c0,1.438,0.557,2.746,1.467,3.72l-0.128,2.312
		c-0.012,0.21,0.223,0.342,0.396,0.223l1.718-1.181c0.621,0.245,1.296,0.382,2.004,0.382c3.013,0,5.457-2.443,5.457-5.456
		C37.752,3.579,35.309,1.136,32.296,1.136z M32.693,8.761c-0.139,0.236-0.331,0.419-0.57,0.543
		c-0.236,0.122-0.523,0.184-0.852,0.184c-0.515,0-0.933-0.154-1.242-0.458c-0.309-0.304-0.472-0.718-0.483-1.232
		c-0.001-0.003-0.009-0.106,0.067-0.193c0.059-0.068,0.148-0.104,0.265-0.107c0.136-0.002,0.244,0.028,0.31,0.094
		c0.051,0.051,0.069,0.113,0.068,0.155c0.024,0.225,0.078,0.411,0.161,0.539c0.082,0.126,0.202,0.23,0.356,0.308
		c0.156,0.079,0.336,0.119,0.534,0.119c0.282,0,0.502-0.065,0.652-0.195c0.148-0.127,0.219-0.287,0.219-0.491
		c0-0.119-0.025-0.218-0.078-0.304c-0.052-0.085-0.132-0.157-0.239-0.213c-0.119-0.062-0.386-0.153-0.794-0.27
		c-0.386-0.111-0.656-0.222-0.825-0.338c-0.171-0.118-0.307-0.27-0.402-0.452c-0.095-0.182-0.144-0.389-0.144-0.616
		c0-0.407,0.138-0.746,0.411-1.006c0.271-0.259,0.638-0.39,1.092-0.39c0.309,0,0.584,0.061,0.818,0.181
		c0.238,0.122,0.425,0.299,0.556,0.527c0.13,0.225,0.2,0.492,0.21,0.794c0.001,0.008,0.006,0.119-0.076,0.209
		c-0.04,0.044-0.116,0.098-0.249,0.102c-0.137,0.005-0.243-0.027-0.314-0.094c-0.074-0.07-0.08-0.151-0.081-0.167
		c-0.023-0.268-0.106-0.471-0.245-0.598C31.68,5.264,31.477,5.2,31.216,5.2c-0.268,0-0.472,0.056-0.606,0.168
		c-0.13,0.108-0.193,0.243-0.193,0.415c0,0.158,0.044,0.276,0.135,0.359c0.069,0.063,0.25,0.165,0.721,0.291
		c0.399,0.107,0.673,0.199,0.838,0.279l0.001,0c0.257,0.128,0.455,0.299,0.588,0.51c0.133,0.211,0.201,0.464,0.201,0.754
		C32.902,8.261,32.831,8.525,32.693,8.761z M35.941,5.248l-2.11,3.838c-0.067,0.122-0.195,0.198-0.335,0.198
		c-0.064,0-0.127-0.016-0.184-0.047c-0.185-0.101-0.252-0.334-0.151-0.519l2.11-3.838c0.101-0.184,0.334-0.252,0.519-0.151l0,0
		C35.975,4.831,36.042,5.064,35.941,5.248z"/>
</g>
</svg>
